<svg style="display: none;" xmlns="http://www.w3.org/2000/svg">
  <symbol id="codepen-logo" viewBox="0 0 120 120">
    <path d="M60.048 0C26.884 0 0 26.9 0 60.048s26.884 60 60 60.047c33.163 0 60.047-26.883 60.047-60.047 S93.211 0 60 0z M60.048 110.233c-27.673 0-50.186-22.514-50.186-50.186S32.375 9.9 60 9.9 c27.672 0 50.2 22.5 50.2 50.186S87.72 110.2 60 110.233z"/>
    <path d="M97.147 48.319c-0.007-0.047-0.019-0.092-0.026-0.139c-0.016-0.09-0.032-0.18-0.056-0.268 c-0.014-0.053-0.033-0.104-0.05-0.154c-0.025-0.078-0.051-0.156-0.082-0.232c-0.021-0.053-0.047-0.105-0.071-0.156 c-0.033-0.072-0.068-0.143-0.108-0.211c-0.029-0.051-0.061-0.1-0.091-0.148c-0.043-0.066-0.087-0.131-0.135-0.193 c-0.035-0.047-0.072-0.094-0.109-0.139c-0.051-0.059-0.104-0.117-0.159-0.172c-0.042-0.043-0.083-0.086-0.127-0.125 c-0.059-0.053-0.119-0.104-0.181-0.152c-0.048-0.037-0.095-0.074-0.145-0.109c-0.019-0.012-0.035-0.027-0.053-0.039L61.817 23.5 c-1.072-0.715-2.468-0.715-3.54 0L24.34 46.081c-0.018 0.012-0.034 0.027-0.053 0.039c-0.05 0.035-0.097 0.072-0.144 0.1 c-0.062 0.049-0.123 0.1-0.181 0.152c-0.045 0.039-0.086 0.082-0.128 0.125c-0.056 0.055-0.108 0.113-0.158 0.2 c-0.038 0.045-0.075 0.092-0.11 0.139c-0.047 0.062-0.092 0.127-0.134 0.193c-0.032 0.049-0.062 0.098-0.092 0.1 c-0.039 0.068-0.074 0.139-0.108 0.211c-0.024 0.051-0.05 0.104-0.071 0.156c-0.031 0.076-0.057 0.154-0.082 0.2 c-0.017 0.051-0.035 0.102-0.05 0.154c-0.023 0.088-0.039 0.178-0.056 0.268c-0.008 0.047-0.02 0.092-0.025 0.1 c-0.019 0.137-0.029 0.275-0.029 0.416V71.36c0 0.1 0 0.3 0 0.418c0.006 0 0 0.1 0 0.1 c0.017 0.1 0 0.2 0.1 0.268c0.015 0.1 0 0.1 0.1 0.154c0.025 0.1 0.1 0.2 0.1 0.2 c0.021 0.1 0 0.1 0.1 0.154c0.034 0.1 0.1 0.1 0.1 0.213c0.029 0 0.1 0.1 0.1 0.1 c0.042 0.1 0.1 0.1 0.1 0.193c0.035 0 0.1 0.1 0.1 0.139c0.05 0.1 0.1 0.1 0.2 0.2 c0.042 0 0.1 0.1 0.1 0.125c0.058 0.1 0.1 0.1 0.2 0.152c0.047 0 0.1 0.1 0.1 0.1 c0.019 0 0 0 0.1 0.039L58.277 96.64c0.536 0.4 1.2 0.5 1.8 0.537c0.616 0 1.233-0.18 1.77-0.537 l33.938-22.625c0.018-0.012 0.034-0.027 0.053-0.039c0.05-0.035 0.097-0.072 0.145-0.109c0.062-0.049 0.122-0.1 0.181-0.152 c0.044-0.039 0.085-0.082 0.127-0.125c0.056-0.055 0.108-0.113 0.159-0.172c0.037-0.045 0.074-0.09 0.109-0.139 c0.048-0.062 0.092-0.127 0.135-0.193c0.03-0.049 0.062-0.098 0.091-0.146c0.04-0.07 0.075-0.141 0.108-0.213 c0.024-0.051 0.05-0.102 0.071-0.154c0.031-0.078 0.057-0.156 0.082-0.234c0.017-0.051 0.036-0.102 0.05-0.154 c0.023-0.088 0.04-0.178 0.056-0.268c0.008-0.045 0.02-0.092 0.026-0.137c0.018-0.139 0.028-0.277 0.028-0.418V48.735 C97.176 48.6 97.2 48.5 97.1 48.319z M63.238 32.073l25.001 16.666L77.072 56.21l-13.834-9.254V32.073z M56.856 32.1 v14.883L43.023 56.21l-11.168-7.471L56.856 32.073z M29.301 54.708l7.983 5.34l-7.983 5.34V54.708z M56.856 88.022L31.855 71.4 l11.168-7.469l13.833 9.252V88.022z M60.048 67.597l-11.286-7.549l11.286-7.549l11.285 7.549L60.048 67.597z M63.238 88.022V73.14 l13.834-9.252l11.167 7.469L63.238 88.022z M90.794 65.388l-7.982-5.34l7.982-5.34V65.388z"/>
  </symbol>
  <symbol id="linkedin-logo" viewBox="0 0 120 120">
  	<path d="M109.461,1.941H10.506c-4.726,0-8.566,3.749-8.566,8.366v99.375c0,4.625,3.84,8.377,8.566,8.377h98.955
  		c4.73,0,8.599-3.752,8.599-8.377V10.307C118.06,5.689,114.191,1.941,109.461,1.941z M36.386,100.888H19.146V45.477h17.239V100.888z
  		 M27.771,37.898c-5.532,0-9.993-4.473-9.993-9.987c0-5.508,4.461-9.983,9.993-9.983c5.512,0,9.982,4.475,9.982,9.983
  		C37.753,33.425,33.283,37.898,27.771,37.898z M100.88,100.888H83.675V73.943c0-6.425-0.126-14.694-8.951-14.694
  		c-8.962,0-10.33,6.999-10.33,14.229v27.41h-17.2V45.477h16.507v7.57h0.236c2.296-4.356,7.916-8.949,16.295-8.949
  		c17.426,0,20.647,11.472,20.647,26.396V100.888z"/>
  </symbol>
  <symbol id="github-logo" viewBox="0 0 120 120">
  	<path d="M60,1.996c-32.842,0-59.471,26.627-59.471,59.477
  		c0,26.271,17.04,48.563,40.674,56.428c2.974,0.545,4.058-1.29,4.058-2.865c0-1.414-0.051-5.154-0.079-10.116
  		c-16.544,3.593-20.034-7.974-20.034-7.974c-2.707-6.869-6.604-8.698-6.604-8.698c-5.402-3.691,0.411-3.616,0.411-3.616
  		c5.968,0.421,9.105,6.128,9.105,6.128c5.306,9.089,13.92,6.464,17.31,4.943c0.538-3.844,2.079-6.465,3.775-7.95
  		c-13.205-1.501-27.089-6.604-27.089-29.395c0-6.492,2.317-11.801,6.122-15.958c-0.61-1.505-2.654-7.553,0.581-15.737
  		c0,0,4.995-1.602,16.359,6.097c4.741-1.319,9.829-1.983,14.889-2.004c5.049,0.021,10.133,0.685,14.89,2.004
  		c11.353-7.698,16.336-6.097,16.336-6.097c3.244,8.185,1.205,14.232,0.592,15.737c3.808,4.157,6.111,9.466,6.111,15.958
  		c0,22.847-13.905,27.874-27.154,29.348c2.14,1.836,4.036,5.466,4.036,11.013c0,7.951-0.071,14.364-0.071,16.316
  		c0,1.59,1.07,3.439,4.094,2.858c23.609-7.88,40.63-30.156,40.63-56.421C119.471,28.624,92.845,1.996,60,1.996z"/>
  </symbol>
</svg>
